<?xml version="1.0" encoding="UTF-8" standalone="no"?>
<svg
   width="1920"
   height="432"
   viewBox="0 0 1920 432"
   version="1.1"
   id="svg15"
   sodipodi:docname="BANNER IMG.svg"
   inkscape:version="1.2.2 (732a01da63, 2022-12-09)"
   xmlns:inkscape="http://www.inkscape.org/namespaces/inkscape"
   xmlns:sodipodi="http://sodipodi.sourceforge.net/DTD/sodipodi-0.dtd"
   xmlns="http://www.w3.org/2000/svg"
   xmlns:svg="http://www.w3.org/2000/svg">
  <sodipodi:namedview
     id="namedview17"
     pagecolor="#ffffff"
     bordercolor="#000000"
     borderopacity="0.25"
     inkscape:showpageshadow="2"
     inkscape:pageopacity="0.0"
     inkscape:pagecheckerboard="0"
     inkscape:deskcolor="#d1d1d1"
     showgrid="false"
     inkscape:zoom="0.5462963"
     inkscape:cx="957.35593"
     inkscape:cy="216"
     inkscape:window-width="1440"
     inkscape:window-height="837"
     inkscape:window-x="-8"
     inkscape:window-y="-8"
     inkscape:window-maximized="1"
     inkscape:current-layer="svg15" />
  <defs
     id="defs7">
    <style
       id="style2">.a{fill:#fff;}.b{clip-path:url(#a);}.c{fill:#255aff;}.d{fill:#0f3fd3;}</style>
    <clipPath
       id="a">
      <rect
         class="a"
         width="1920"
         height="432"
         transform="translate(0 3342)"
         id="rect4" />
    </clipPath>
  </defs>
  <g
     class="b"
     transform="translate(0 -3342)"
     clip-path="url(#a)"
     id="g13"
     style="fill:#333333">
    <path
       class="c"
       d="M1920,5374.653H-4.074V4800.96H1920Z"
       transform="translate(0 -1459.031)"
       id="path9"
       style="fill:#333333" />
    <path
       class="d"
       d="M-696.961,536.2a166.032,166.032,0,0,0-1.139,19.242c0,253.552,580.911,459.1,1297.5,459.1s1297.5-205.545,1297.5-459.1a166.032,166.032,0,0,0-1.139-19.242Z"
       transform="translate(361.1 2631.729)"
       id="path11"
       style="fill:#333333" />
  </g>
  <path
     style="fill:#666666;stroke-width:1.83339"
     d="m 0,293.79661 c 0,-76.01186 0.61779661,-138.20154 1.3728814,-138.19928 0.7550847,0.002 10.8457626,3.59648 22.4237286,7.98717 48.179498,18.27102 125.89132,41.87358 190.99998,58.01034 330.25823,81.85235 743.9685,104.87717 1129.71191,62.87351 210.2438,-22.89349 403.1231,-65.36023 558.7627,-123.02426 l 15.1017,-5.59513 V 293.92448 432 H 959.18644 0 Z"
     id="path384" />
  <path
     style="fill:#808080;stroke-width:1.83339"
     d="M 0.61279951,318.05085 C 1.2797121,255.37881 1.8265246,193.50308 1.8279383,180.54922 c 0.00236,-21.58332 0.2703966,-23.47054 3.20596,-22.57236 1.7618644,0.53907 18.8542377,6.45644 37.9830507,13.1497 208.296851,72.88408 450.958451,115.21693 752.338981,131.2472 58.44988,3.10891 271.00107,3.11034 329.49157,0.002 145.0431,-7.70746 260.4179,-19.50647 378.9152,-38.75044 139.4714,-22.65015 276.2078,-56.77099 385.4861,-96.19313 15.2591,-5.50476 28.0545,-10.00865 28.434,-10.00865 0.3796,0 0.6901,61.77966 0.6901,137.28813 V 432 H 958.88655 -0.59976903 Z"
     id="path509" />
  <path
     style="fill:#4d4d4d;stroke-width:1.83339"
     d="m 853.01695,302.7583 c -7.55085,-0.33939 -33.91017,-1.50121 -58.57627,-2.58186 C 509.88213,287.70982 242.61318,240.65991 34.646008,166.42254 17.960634,160.46641 3.339448,155.59322 2.1544827,155.59322 0.53597398,155.59322 0,136.23964 0,77.79661 V 0 h 959.18644 959.18646 v 77.523 77.523 l -24.2543,8.7626 c -175.3628,63.35532 -392.5062,107.36814 -627.4067,127.16917 -109.942,9.26761 -157.4803,11.24063 -285.55936,11.85172 -62.92373,0.30024 -120.58474,0.26821 -128.13559,-0.0712 z"
     id="path580" />
  <path
     style="fill:#666666;stroke-width:1.83339"
     d="M 1.148738,303.40678 C 1.9187794,185.1122 2.5472907,159.25424 4.652552,159.25424 c 0.4219675,0 25.289291,8.18119 55.260721,18.18043 60.854227,20.30252 87.653127,28.24 145.103677,42.97778 146.51452,37.58534 311.3063,62.90721 500.64407,76.92885 96.63961,7.15676 106.04047,7.42658 256.27118,7.35527 154.4907,-0.0733 173.0445,-0.68146 279.1525,-9.1497 239.6361,-19.1248 441.3726,-57.63509 624.1601,-119.14844 27.6624,-9.30927 50.5088,-16.7126 50.7697,-16.45185 0.2606,0.26076 1.0322,61.57945 1.7144,136.26376 L 1918.9693,432 H 959.6405 0.31165706 Z"
     id="path582" />
</svg>
